# xmcd
#
# Track frame offsets:
#	150
#	19283
#	34694
#	50771
#	67663
#	83215
#	101069
#	120843
#	139050
#	158152
#	171860
#	190433
#	208808
#
# Disc length: 2989 seconds
#
# Revision: 0
# Processed by: cddbd v1.5.2PL0 Copyright (c) Steve Scherf et al.
# Submitted via: audiograbber 1.83.01
#
DISCID=b00bab0d
DTITLE=Alan Jackson - Like Red On A Rose
DYEAR=2006
DGENRE=Country
TTITLE0=Anywhere On Earth You Are
TTITLE1=Good Imitation Of The Blues
TTITLE2=Like Red On A Rose
TTITLE3=Nobody Said That It Would Be E
TTITLE4=Dont Change On Me
TTITLE5=The Fireflys Song
TTITLE6=Wait A Minute
TTITLE7=Had It Not Been You
TTITLE8=A Womans Love
TTITLE9=Dont Ask Why
TTITLE10=As Lovely As You
TTITLE11=Where Do I Go From Here
TTITLE12=Bluebird
EXTD=
EXTT0=
EXTT1=
EXTT2=
EXTT3=
EXTT4=
EXTT5=
EXTT6=
EXTT7=
EXTT8=
EXTT9=
EXTT10=
EXTT11=
EXTT12=
PLAYORDER=
